ffmpeg started on 2025-10-01 at 11:08:50
Report written to "D:\Convert\FFMetrics\reports\psnr_report-6.txt"
Log level: 32
Command line:
ffmpeg -hide_banner -nostdin -i "F:\\\xc0\xed\xe8\xec\xe5\\\xce\xed\xe3\xee\xe8\xed\xe3\xe8\\!_37_\xc7\xe8\xec\xe0_2025\\JamClub\\\xc4\xee\xea\xf2\xee\xf0 \xd1\xf2\xee\xf3\xed\\\xd2\xc2-4\\JamClub_Dr_Stone_Science_Future_11_1080p_HEVC.mkv" -i "F:\\\xc0\xed\xe8\xec\xe5\\\xce\xed\xe3\xee\xe8\xed\xe3\xe8\\!_37_\xc7\xe8\xec\xe0_2025\\JamClub\\\xc4\xee\xea\xf2\xee\xf0 \xd1\xf2\xee\xf3\xed\\\xd2\xc2-4\\JamClub_Dr_Stone_Science_Future_11_1080p.mp4" -lavfi "[0:v]settb=AVTB,setpts=PTS-STARTPTS,format=pix_fmts=yuv420p10le,fps=24000/1001,scale=1920:1080:flags=bicubic:out_range=limited:out_chroma_loc=left,colorspace=format=yuv420p10:range=tv:primaries=bt709:trc=bt709:space=bt709:fast=0[main];[1:v]settb=AVTB,setpts=PTS-STARTPTS,format=pix_fmts=yuv420p,fps=24000/1001,scale=1920:1080:flags=bicubic:out_range=limited:out_chroma_loc=left,colorspace=format=yuv420p:irange=tv:iprimaries=bt709:itrc=bt709:ispace=bt709:range=tv:primaries=bt709:trc=bt709:space=bt709:fast=0[ref];[main][ref]psnr=eof_action=endall:stats_file='D\\:/Convert/FFMetrics/logs/psnr_logfile-6.txt'" -f null -
Input #0, matroska,webm, from 'F:\Аниме\Онгоинги\!_37_Зима_2025\JamClub\Доктор Стоун\ТВ-4\JamClub_Dr_Stone_Science_Future_11_1080p_HEVC.mkv':
  Metadata:
    COMPATIBLE_BRANDS: isomiso2avc1mp41
    MAJOR_BRAND     : isom
    MINOR_VERSION   : 512
    ENCODER         : Lavf61.7.100
  Duration: 00:24:23.25, start: -0.001000, bitrate: 2227 kb/s
  Stream #0:0: Video: hevc (Main 10), yuv420p10le(tv, bt709, progressive), 1920x1080 [SAR 1:1 DAR 16:9], 23.98 fps, 23.98 tbr, 1k tbn (default)
      Metadata:
        HANDLER_NAME    : VideoHandler
        VENDOR_ID       : [0][0][0][0]
        ENCODER         : Lavc61.19.100 libx265
        BPS             : 2029928
        DURATION        : 00:24:22.127708333
        NUMBER_OF_FRAMES: 35056
        NUMBER_OF_BYTES : 371001703
        _STATISTICS_WRITING_APP: mkvpropedit v94.0 ('Initiate') 64-bit
        _STATISTICS_WRITING_DATE_UTC: 2025-09-30 18:33:47
        _STATISTICS_TAGS: BPS DURATION NUMBER_OF_FRAMES NUMBER_OF_BYTES
  Stream #0:1(eng): Audio: aac (LC), 48000 Hz, stereo, fltp (default)
      Metadata:
        HANDLER_NAME    : SoundHandler
        VENDOR_ID       : [0][0][0][0]
        ENCODER         : Lavc61.19.100 aac
        BPS             : 195193
        DURATION        : 00:24:23.213000000
        NUMBER_OF_FRAMES: 68589
        NUMBER_OF_BYTES : 35701151
        _STATISTICS_WRITING_APP: mkvpropedit v94.0 ('Initiate') 64-bit
        _STATISTICS_WRITING_DATE_UTC: 2025-09-30 18:33:47
        _STATISTICS_TAGS: BPS DURATION NUMBER_OF_FRAMES NUMBER_OF_BYTES
Input #1, mov,mp4,m4a,3gp,3g2,mj2, from 'F:\Аниме\Онгоинги\!_37_Зима_2025\JamClub\Доктор Стоун\ТВ-4\JamClub_Dr_Stone_Science_Future_11_1080p.mp4':
  Metadata:
    major_brand     : isom
    minor_version   : 512
    compatible_brands: isomiso2avc1mp41
    encoder         : Lavf60.16.100
  Duration: 00:24:23.23, start: 0.000000, bitrate: 5171 kb/s
  Stream #1:0[0x1](und): Video: h264 (High) (avc1 / 0x31637661), yuv420p(progressive), 1920x1080 [SAR 1:1 DAR 16:9], 4976 kb/s, 23.98 fps, 23.98 tbr, 90k tbn (default)
      Metadata:
        handler_name    : VideoHandler
        vendor_id       : [0][0][0][0]
  Stream #1:1[0x2](eng): Audio: aac (LC) (mp4a / 0x6134706D), 48000 Hz, stereo, fltp, 191 kb/s (default)
      Metadata:
        handler_name    : SoundHandler
        vendor_id       : [0][0][0][0]
Stream mapping:
  Stream #0:0 (hevc) -> settb:default
  Stream #1:0 (h264) -> settb:default
  psnr:default -> Stream #0:0 (wrapped_avframe)
  Stream #0:1 -> #0:1 (aac (native) -> pcm_s16le (native))
Output #0, null, to 'pipe:':
  Metadata:
    COMPATIBLE_BRANDS: isomiso2avc1mp41
    MAJOR_BRAND     : isom
    MINOR_VERSION   : 512
    encoder         : Lavf61.7.100
  Stream #0:0: Video: wrapped_avframe, yuv420p10le(tv, bt709, progressive), 1920x1080 [SAR 1:1 DAR 16:9], q=2-31, 200 kb/s, 23.98 fps, 23.98 tbn
      Metadata:
        encoder         : Lavc61.19.100 wrapped_avframe
  Stream #0:1(eng): Audio: pcm_s16le, 48000 Hz, stereo, s16, 1536 kb/s (default)
      Metadata:
        HANDLER_NAME    : SoundHandler
        VENDOR_ID       : [0][0][0][0]
        _STATISTICS_TAGS: BPS DURATION NUMBER_OF_FRAMES NUMBER_OF_BYTES
        BPS             : 195193
        DURATION        : 00:24:23.213000000
        NUMBER_OF_FRAMES: 68589
        NUMBER_OF_BYTES : 35701151
        _STATISTICS_WRITING_APP: mkvpropedit v94.0 ('Initiate') 64-bit
        _STATISTICS_WRITING_DATE_UTC: 2025-09-30 18:33:47
        encoder         : Lavc61.19.100 pcm_s16le
frame=  103 fps=0.0 q=-0.0 size=N/A time=00:00:04.29 bitrate=N/A speed=8.32x    frame=  244 fps=237 q=-0.0 size=N/A time=00:00:10.17 bitrate=N/A speed=9.89x    frame=  399 fps=259 q=-0.0 size=N/A time=00:00:16.64 bitrate=N/A speed=10.8x    frame=  573 fps=277 q=-0.0 size=N/A time=00:00:23.89 bitrate=N/A speed=11.6x    frame=  753 fps=292 q=-0.0 size=N/A time=00:00:31.40 bitrate=N/A speed=12.2x    frame=  942 fps=305 q=-0.0 size=N/A time=00:00:39.28 bitrate=N/A speed=12.7x    frame= 1103 fps=306 q=-0.0 size=N/A time=00:00:46.00 bitrate=N/A speed=12.8x    frame= 1297 fps=314 q=-0.0 size=N/A time=00:00:54.09 bitrate=N/A speed=13.1x    frame= 1476 fps=318 q=-0.0 size=N/A time=00:01:01.56 bitrate=N/A speed=13.3x    frame= 1664 fps=323 q=-0.0 size=N/A time=00:01:09.40 bitrate=N/A speed=13.5x    frame= 1853 fps=326 q=-0.0 size=N/A time=00:01:17.28 bitrate=N/A speed=13.6x    frame= 2008 fps=324 q=-0.0 size=N/A time=00:01:23.75 bitrate=N/A speed=13.5x    frame= 2165 fps=323 q=-0.0 size=N/A time=00:01:30.29 bitrate=N/A speed=13.5x    frame= 2322 fps=321 q=-0.0 size=N/A time=00:01:36.84 bitrate=N/A speed=13.4x    frame= 2480 fps=321 q=-0.0 size=N/A time=00:01:43.43 bitrate=N/A speed=13.4x    frame= 2644 fps=321 q=-0.0 size=N/A time=00:01:50.27 bitrate=N/A speed=13.4x    frame= 2756 fps=314 q=-0.0 size=N/A time=00:01:54.94 bitrate=N/A speed=13.1x    frame= 2880 fps=310 q=-0.0 size=N/A time=00:02:00.12 bitrate=N/A speed=12.9x    frame= 3008 fps=307 q=-0.0 size=N/A time=00:02:05.45 bitrate=N/A speed=12.8x    frame= 3133 fps=304 q=-0.0 size=N/A time=00:02:10.67 bitrate=N/A speed=12.7x    frame= 3260 fps=301 q=-0.0 size=N/A time=00:02:15.96 bitrate=N/A speed=12.6x    frame= 3410 fps=300 q=-0.0 size=N/A time=00:02:22.22 bitrate=N/A speed=12.5x    frame= 3548 fps=299 q=-0.0 size=N/A time=00:02:27.98 bitrate=N/A speed=12.5x    frame= 3667 fps=296 q=-0.0 size=N/A time=00:02:32.94 bitrate=N/A speed=12.4x    frame= 3801 fps=295 q=-0.0 size=N/A time=00:02:38.53 bitrate=N/A speed=12.3x    frame= 3922 fps=293 q=-0.0 size=N/A time=00:02:43.58 bitrate=N/A speed=12.2x    frame= 4047 fps=291 q=-0.0 size=N/A time=00:02:48.79 bitrate=N/A speed=12.1x    frame= 4150 fps=287 q=-0.0 size=N/A time=00:02:53.08 bitrate=N/A speed=  12x    frame= 4284 fps=286 q=-0.0 size=N/A time=00:02:58.67 bitrate=N/A speed=11.9x    frame= 4454 fps=288 q=-0.0 size=N/A time=00:03:05.76 bitrate=N/A speed=  12x    frame= 4569 fps=286 q=-0.0 size=N/A time=00:03:10.56 bitrate=N/A speed=11.9x    frame= 4718 fps=286 q=-0.0 size=N/A time=00:03:16.77 bitrate=N/A speed=11.9x    frame= 4906 fps=288 q=-0.0 size=N/A time=00:03:24.62 bitrate=N/A speed=  12x    frame= 5074 fps=290 q=-0.0 size=N/A time=00:03:31.62 bitrate=N/A speed=12.1x    frame= 5257 fps=291 q=-0.0 size=N/A time=00:03:39.26 bitrate=N/A speed=12.1x    frame= 5432 fps=293 q=-0.0 size=N/A time=00:03:46.55 bitrate=N/A speed=12.2x    frame= 5599 fps=293 q=-0.0 size=N/A time=00:03:53.52 bitrate=N/A speed=12.2x    frame= 5771 fps=295 q=-0.0 size=N/A time=00:04:00.69 bitrate=N/A speed=12.3x    frame= 5966 fps=297 q=-0.0 size=N/A time=00:04:08.83 bitrate=N/A speed=12.4x    frame= 6145 fps=298 q=-0.0 size=N/A time=00:04:16.29 bitrate=N/A speed=12.4x    frame= 6297 fps=298 q=-0.0 size=N/A time=00:04:22.63 bitrate=N/A speed=12.4x    frame= 6438 fps=297 q=-0.0 size=N/A time=00:04:28.51 bitrate=N/A speed=12.4x    frame= 6596 fps=297 q=-0.0 size=N/A time=00:04:35.10 bitrate=N/A speed=12.4x    frame= 6756 fps=298 q=-0.0 size=N/A time=00:04:41.78 bitrate=N/A speed=12.4x    frame= 6902 fps=298 q=-0.0 size=N/A time=00:04:47.87 bitrate=N/A speed=12.4x    frame= 7082 fps=298 q=-0.0 size=N/A time=00:04:55.37 bitrate=N/A speed=12.4x    frame= 7266 fps=300 q=-0.0 size=N/A time=00:05:03.05 bitrate=N/A speed=12.5x    frame= 7438 fps=301 q=-0.0 size=N/A time=00:05:10.22 bitrate=N/A speed=12.5x    frame= 7613 fps=301 q=-0.0 size=N/A time=00:05:17.52 bitrate=N/A speed=12.6x    frame= 7788 fps=302 q=-0.0 size=N/A time=00:05:24.82 bitrate=N/A speed=12.6x    frame= 7953 fps=302 q=-0.0 size=N/A time=00:05:31.70 bitrate=N/A speed=12.6x    frame= 8107 fps=302 q=-0.0 size=N/A time=00:05:38.12 bitrate=N/A speed=12.6x    frame= 8264 fps=302 q=-0.0 size=N/A time=00:05:44.67 bitrate=N/A speed=12.6x    frame= 8441 fps=303 q=-0.0 size=N/A time=00:05:52.06 bitrate=N/A speed=12.6x    frame= 8597 fps=303 q=-0.0 size=N/A time=00:05:58.56 bitrate=N/A speed=12.6x    frame= 8749 fps=303 q=-0.0 size=N/A time=00:06:04.90 bitrate=N/A speed=12.6x    frame= 8906 fps=303 q=-0.0 size=N/A time=00:06:11.45 bitrate=N/A speed=12.6x    frame= 9069 fps=303 q=-0.0 size=N/A time=00:06:18.25 bitrate=N/A speed=12.6x    frame= 9224 fps=303 q=-0.0 size=N/A time=00:06:24.71 bitrate=N/A speed=12.6x    frame= 9409 fps=304 q=-0.0 size=N/A time=00:06:32.43 bitrate=N/A speed=12.7x    frame= 9583 fps=305 q=-0.0 size=N/A time=00:06:39.69 bitrate=N/A speed=12.7x    frame= 9748 fps=305 q=-0.0 size=N/A time=00:06:46.57 bitrate=N/A speed=12.7x    frame= 9912 fps=305 q=-0.0 size=N/A time=00:06:53.41 bitrate=N/A speed=12.7x    frame=10078 fps=305 q=-0.0 size=N/A time=00:07:00.33 bitrate=N/A speed=12.7x    frame=10249 fps=306 q=-0.0 size=N/A time=00:07:07.46 bitrate=N/A speed=12.8x    frame=10429 fps=306 q=-0.0 size=N/A time=00:07:14.97 bitrate=N/A speed=12.8x    frame=10605 fps=307 q=-0.0 size=N/A time=00:07:22.31 bitrate=N/A speed=12.8x    frame=10792 fps=308 q=-0.0 size=N/A time=00:07:30.11 bitrate=N/A speed=12.8x    frame=10979 fps=308 q=-0.0 size=N/A time=00:07:37.91 bitrate=N/A speed=12.9x    frame=11163 fps=309 q=-0.0 size=N/A time=00:07:45.59 bitrate=N/A speed=12.9x    frame=11330 fps=309 q=-0.0 size=N/A time=00:07:52.55 bitrate=N/A speed=12.9x    frame=11505 fps=310 q=-0.0 size=N/A time=00:07:59.85 bitrate=N/A speed=12.9x    frame=11690 fps=310 q=-0.0 size=N/A time=00:08:07.57 bitrate=N/A speed=12.9x    frame=11879 fps=311 q=-0.0 size=N/A time=00:08:15.45 bitrate=N/A speed=  13x    frame=12055 fps=311 q=-0.0 size=N/A time=00:08:22.79 bitrate=N/A speed=  13x    frame=12200 fps=311 q=-0.0 size=N/A time=00:08:28.84 bitrate=N/A speed=  13x    frame=12373 fps=311 q=-0.0 size=N/A time=00:08:36.05 bitrate=N/A speed=  13x    frame=12532 fps=311 q=-0.0 size=N/A time=00:08:42.68 bitrate=N/A speed=  13x    frame=12691 fps=311 q=-0.0 size=N/A time=00:08:49.32 bitrate=N/A speed=  13x    frame=12860 fps=312 q=-0.0 size=N/A time=00:08:56.36 bitrate=N/A speed=  13x    frame=13031 fps=312 q=-0.0 size=N/A time=00:09:03.50 bitrate=N/A speed=  13x    frame=13185 fps=312 q=-0.0 size=N/A time=00:09:09.92 bitrate=N/A speed=  13x    frame=13347 fps=312 q=-0.0 size=N/A time=00:09:16.68 bitrate=N/A speed=  13x    frame=13520 fps=312 q=-0.0 size=N/A time=00:09:23.89 bitrate=N/A speed=  13x    frame=13684 fps=312 q=-0.0 size=N/A time=00:09:30.73 bitrate=N/A speed=  13x    frame=13848 fps=312 q=-0.0 size=N/A time=00:09:37.57 bitrate=N/A speed=  13x    frame=14041 fps=313 q=-0.0 size=N/A time=00:09:45.62 bitrate=N/A speed=  13x    frame=14228 fps=313 q=-0.0 size=N/A time=00:09:53.42 bitrate=N/A speed=13.1x    frame=14376 fps=313 q=-0.0 size=N/A time=00:09:59.59 bitrate=N/A speed=13.1x    frame=14523 fps=313 q=-0.0 size=N/A time=00:10:05.73 bitrate=N/A speed=  13x    frame=14671 fps=312 q=-0.0 size=N/A time=00:10:11.90 bitrate=N/A speed=  13x    frame=14832 fps=312 q=-0.0 size=N/A time=00:10:18.61 bitrate=N/A speed=  13x    frame=15005 fps=313 q=-0.0 size=N/A time=00:10:25.83 bitrate=N/A speed=  13x    frame=15165 fps=313 q=-0.0 size=N/A time=00:10:32.50 bitrate=N/A speed=  13x    frame=15340 fps=313 q=-0.0 size=N/A time=00:10:39.80 bitrate=N/A speed=  13x    frame=15490 fps=313 q=-0.0 size=N/A time=00:10:46.06 bitrate=N/A speed=  13x    frame=15656 fps=313 q=-0.0 size=N/A time=00:10:52.98 bitrate=N/A speed=  13x    frame=15820 fps=313 q=-0.0 size=N/A time=00:10:59.82 bitrate=N/A speed=  13x    frame=15989 fps=313 q=-0.0 size=N/A time=00:11:06.87 bitrate=N/A speed=13.1x    frame=16152 fps=313 q=-0.0 size=N/A time=00:11:13.67 bitrate=N/A speed=13.1x    frame=16348 fps=314 q=-0.0 size=N/A time=00:11:21.84 bitrate=N/A speed=13.1x    frame=16530 fps=314 q=-0.0 size=N/A time=00:11:29.43 bitrate=N/A speed=13.1x    frame=16707 fps=314 q=-0.0 size=N/A time=00:11:36.82 bitrate=N/A speed=13.1x    frame=16888 fps=315 q=-0.0 size=N/A time=00:11:44.37 bitrate=N/A speed=13.1x    frame=17052 fps=315 q=-0.0 size=N/A time=00:11:51.21 bitrate=N/A speed=13.1x    frame=17230 fps=315 q=-0.0 size=N/A time=00:11:58.63 bitrate=N/A speed=13.1x    frame=17416 fps=315 q=-0.0 size=N/A time=00:12:06.39 bitrate=N/A speed=13.2x    frame=17589 fps=316 q=-0.0 size=N/A time=00:12:13.60 bitrate=N/A speed=13.2x    frame=17760 fps=316 q=-0.0 size=N/A time=00:12:20.74 bitrate=N/A speed=13.2x    frame=17920 fps=316 q=-0.0 size=N/A time=00:12:27.41 bitrate=N/A speed=13.2x    frame=18095 fps=316 q=-0.0 size=N/A time=00:12:34.71 bitrate=N/A speed=13.2x    frame=18270 fps=316 q=-0.0 size=N/A time=00:12:42.01 bitrate=N/A speed=13.2x    frame=18443 fps=316 q=-0.0 size=N/A time=00:12:49.22 bitrate=N/A speed=13.2x    frame=18616 fps=316 q=-0.0 size=N/A time=00:12:56.44 bitrate=N/A speed=13.2x    frame=18773 fps=316 q=-0.0 size=N/A time=00:13:02.99 bitrate=N/A speed=13.2x    frame=18950 fps=316 q=-0.0 size=N/A time=00:13:10.37 bitrate=N/A speed=13.2x    frame=19109 fps=316 q=-0.0 size=N/A time=00:13:17.00 bitrate=N/A speed=13.2x    frame=19293 fps=317 q=-0.0 size=N/A time=00:13:24.67 bitrate=N/A speed=13.2x    frame=19484 fps=317 q=-0.0 size=N/A time=00:13:32.64 bitrate=N/A speed=13.2x    frame=19628 fps=317 q=-0.0 size=N/A time=00:13:38.65 bitrate=N/A speed=13.2x    frame=19816 fps=317 q=-0.0 size=N/A time=00:13:46.49 bitrate=N/A speed=13.2x    frame=19997 fps=317 q=-0.0 size=N/A time=00:13:54.04 bitrate=N/A speed=13.2x    frame=20175 fps=318 q=-0.0 size=N/A time=00:14:01.46 bitrate=N/A speed=13.3x    frame=20348 fps=318 q=-0.0 size=N/A time=00:14:08.68 bitrate=N/A speed=13.3x    frame=20544 fps=318 q=-0.0 size=N/A time=00:14:16.85 bitrate=N/A speed=13.3x    frame=20727 fps=319 q=-0.0 size=N/A time=00:14:24.48 bitrate=N/A speed=13.3x    frame=20898 fps=319 q=-0.0 size=N/A time=00:14:31.62 bitrate=N/A speed=13.3x    frame=21086 fps=319 q=-0.0 size=N/A time=00:14:39.46 bitrate=N/A speed=13.3x    frame=21260 fps=319 q=-0.0 size=N/A time=00:14:46.71 bitrate=N/A speed=13.3x    frame=21419 fps=319 q=-0.0 size=N/A time=00:14:53.35 bitrate=N/A speed=13.3x    frame=21587 fps=319 q=-0.0 size=N/A time=00:15:00.35 bitrate=N/A speed=13.3x    frame=21762 fps=319 q=-0.0 size=N/A time=00:15:07.65 bitrate=N/A speed=13.3x    frame=21919 fps=319 q=-0.0 size=N/A time=00:15:14.20 bitrate=N/A speed=13.3x    frame=22103 fps=320 q=-0.0 size=N/A time=00:15:21.87 bitrate=N/A speed=13.3x    frame=22253 fps=319 q=-0.0 size=N/A time=00:15:28.13 bitrate=N/A speed=13.3x    frame=22425 fps=319 q=-0.0 size=N/A time=00:15:35.30 bitrate=N/A speed=13.3x    frame=22580 fps=319 q=-0.0 size=N/A time=00:15:41.77 bitrate=N/A speed=13.3x    frame=22750 fps=319 q=-0.0 size=N/A time=00:15:48.86 bitrate=N/A speed=13.3x    frame=22916 fps=319 q=-0.0 size=N/A time=00:15:55.78 bitrate=N/A speed=13.3x    frame=23068 fps=319 q=-0.0 size=N/A time=00:16:02.12 bitrate=N/A speed=13.3x    frame=23227 fps=319 q=-0.0 size=N/A time=00:16:08.75 bitrate=N/A speed=13.3x    frame=23384 fps=319 q=-0.0 size=N/A time=00:16:15.30 bitrate=N/A speed=13.3x    frame=23556 fps=319 q=-0.0 size=N/A time=00:16:22.48 bitrate=N/A speed=13.3x    frame=23716 fps=319 q=-0.0 size=N/A time=00:16:29.15 bitrate=N/A speed=13.3x    frame=23882 fps=319 q=-0.0 size=N/A time=00:16:36.07 bitrate=N/A speed=13.3x    frame=24047 fps=319 q=-0.0 size=N/A time=00:16:42.96 bitrate=N/A speed=13.3x    frame=24240 fps=319 q=-0.0 size=N/A time=00:16:51.01 bitrate=N/A speed=13.3x    frame=24430 fps=320 q=-0.0 size=N/A time=00:16:58.93 bitrate=N/A speed=13.3x    frame=24615 fps=320 q=-0.0 size=N/A time=00:17:06.65 bitrate=N/A speed=13.3x    frame=24797 fps=320 q=-0.0 size=N/A time=00:17:14.24 bitrate=N/A speed=13.4x    frame=24980 fps=320 q=-0.0 size=N/A time=00:17:21.87 bitrate=N/A speed=13.4x    frame=25163 fps=321 q=-0.0 size=N/A time=00:17:29.50 bitrate=N/A speed=13.4x    frame=25336 fps=321 q=-0.0 size=N/A time=00:17:36.72 bitrate=N/A speed=13.4x    frame=25511 fps=321 q=-0.0 size=N/A time=00:17:44.02 bitrate=N/A speed=13.4x    frame=25693 fps=321 q=-0.0 size=N/A time=00:17:51.61 bitrate=N/A speed=13.4x    frame=25854 fps=321 q=-0.0 size=N/A time=00:17:58.32 bitrate=N/A speed=13.4x    frame=26033 fps=321 q=-0.0 size=N/A time=00:18:05.79 bitrate=N/A speed=13.4x    frame=26197 fps=321 q=-0.0 size=N/A time=00:18:12.63 bitrate=N/A speed=13.4x    frame=26347 fps=321 q=-0.0 size=N/A time=00:18:18.88 bitrate=N/A speed=13.4x    frame=26530 fps=321 q=-0.0 size=N/A time=00:18:26.52 bitrate=N/A speed=13.4x    frame=26710 fps=321 q=-0.0 size=N/A time=00:18:34.02 bitrate=N/A speed=13.4x    frame=26885 fps=322 q=-0.0 size=N/A time=00:18:41.32 bitrate=N/A speed=13.4x    frame=27057 fps=322 q=-0.0 size=N/A time=00:18:48.50 bitrate=N/A speed=13.4x    frame=27251 fps=322 q=-0.0 size=N/A time=00:18:56.59 bitrate=N/A speed=13.4x    frame=27432 fps=322 q=-0.0 size=N/A time=00:19:04.14 bitrate=N/A speed=13.4x    frame=27620 fps=322 q=-0.0 size=N/A time=00:19:11.98 bitrate=N/A speed=13.4x    frame=27819 fps=323 q=-0.0 size=N/A time=00:19:20.28 bitrate=N/A speed=13.5x    frame=28012 fps=323 q=-0.0 size=N/A time=00:19:28.33 bitrate=N/A speed=13.5x    frame=28182 fps=323 q=-0.0 size=N/A time=00:19:35.42 bitrate=N/A speed=13.5x    frame=28343 fps=323 q=-0.0 size=N/A time=00:19:42.13 bitrate=N/A speed=13.5x    frame=28502 fps=323 q=-0.0 size=N/A time=00:19:48.77 bitrate=N/A speed=13.5x    frame=28654 fps=323 q=-0.0 size=N/A time=00:19:55.11 bitrate=N/A speed=13.5x    frame=28832 fps=323 q=-0.0 size=N/A time=00:20:02.53 bitrate=N/A speed=13.5x    frame=28983 fps=323 q=-0.0 size=N/A time=00:20:08.83 bitrate=N/A speed=13.5x    frame=29154 fps=323 q=-0.0 size=N/A time=00:20:15.96 bitrate=N/A speed=13.5x    frame=29331 fps=323 q=-0.0 size=N/A time=00:20:23.34 bitrate=N/A speed=13.5x    frame=29494 fps=323 q=-0.0 size=N/A time=00:20:30.14 bitrate=N/A speed=13.5x    frame=29640 fps=323 q=-0.0 size=N/A time=00:20:36.23 bitrate=N/A speed=13.5x    frame=29804 fps=323 q=-0.0 size=N/A time=00:20:43.07 bitrate=N/A speed=13.5x    frame=29977 fps=323 q=-0.0 size=N/A time=00:20:50.29 bitrate=N/A speed=13.5x    frame=30165 fps=323 q=-0.0 size=N/A time=00:20:58.13 bitrate=N/A speed=13.5x    frame=30348 fps=323 q=-0.0 size=N/A time=00:21:05.76 bitrate=N/A speed=13.5x    frame=30518 fps=323 q=-0.0 size=N/A time=00:21:12.85 bitrate=N/A speed=13.5x    frame=30681 fps=323 q=-0.0 size=N/A time=00:21:19.65 bitrate=N/A speed=13.5x    frame=30873 fps=323 q=-0.0 size=N/A time=00:21:27.66 bitrate=N/A speed=13.5x    frame=31053 fps=324 q=-0.0 size=N/A time=00:21:35.16 bitrate=N/A speed=13.5x    frame=31202 fps=323 q=-0.0 size=N/A time=00:21:41.38 bitrate=N/A speed=13.5x    frame=31370 fps=323 q=-0.0 size=N/A time=00:21:48.39 bitrate=N/A speed=13.5x    frame=31551 fps=323 q=-0.0 size=N/A time=00:21:55.93 bitrate=N/A speed=13.5x    frame=31706 fps=323 q=-0.0 size=N/A time=00:22:02.40 bitrate=N/A speed=13.5x    frame=31893 fps=324 q=-0.0 size=N/A time=00:22:10.20 bitrate=N/A speed=13.5x    frame=32066 fps=324 q=-0.0 size=N/A time=00:22:17.41 bitrate=N/A speed=13.5x    frame=32230 fps=324 q=-0.0 size=N/A time=00:22:24.25 bitrate=N/A speed=13.5x    frame=32406 fps=324 q=-0.0 size=N/A time=00:22:31.60 bitrate=N/A speed=13.5x    frame=32572 fps=324 q=-0.0 size=N/A time=00:22:38.52 bitrate=N/A speed=13.5x    frame=32759 fps=324 q=-0.0 size=N/A time=00:22:46.32 bitrate=N/A speed=13.5x    frame=32947 fps=324 q=-0.0 size=N/A time=00:22:54.16 bitrate=N/A speed=13.5x    frame=33136 fps=324 q=-0.0 size=N/A time=00:23:02.04 bitrate=N/A speed=13.5x    frame=33303 fps=324 q=-0.0 size=N/A time=00:23:09.01 bitrate=N/A speed=13.5x    frame=33474 fps=324 q=-0.0 size=N/A time=00:23:16.14 bitrate=N/A speed=13.5x    frame=33660 fps=325 q=-0.0 size=N/A time=00:23:23.90 bitrate=N/A speed=13.5x    frame=33829 fps=325 q=-0.0 size=N/A time=00:23:30.95 bitrate=N/A speed=13.5x    frame=34010 fps=325 q=-0.0 size=N/A time=00:23:38.50 bitrate=N/A speed=13.5x    frame=34202 fps=325 q=-0.0 size=N/A time=00:23:46.50 bitrate=N/A speed=13.6x    frame=34374 fps=325 q=-0.0 size=N/A time=00:23:53.68 bitrate=N/A speed=13.6x    frame=34498 fps=325 q=-0.0 size=N/A time=00:23:58.85 bitrate=N/A speed=13.5x    frame=34659 fps=325 q=-0.0 size=N/A time=00:24:05.56 bitrate=N/A speed=13.5x    frame=34827 fps=324 q=-0.0 size=N/A time=00:24:12.57 bitrate=N/A speed=13.5x    frame=35005 fps=325 q=-0.0 size=N/A time=00:24:20.00 bitrate=N/A speed=13.5x    [Parsed_psnr_12 @ 000001e3e5adc8c0] PSNR y:46.566183 u:49.521295 v:49.828443 average:47.376962 min:36.732055 max:inf
[out#0/null @ 000001e3e52951c0] video:15063KiB audio:274356KiB subtitle:0KiB other streams:0KiB global headers:0KiB muxing overhead: unknown
frame=35056 fps=325 q=-0.0 Lsize=N/A time=00:24:22.12 bitrate=N/A speed=13.5x    
